<svg version="1.1" viewBox="0 0 24 24" xmlns="http://www.w3.org/2000/svg">
	<path d="m5.5451 0.75398a1.7201 1.7201 0 0 0-0.44738 0.0387 1.7201 1.7201 0 0 0-0.79036 0.41022 1.7201 1.7201 0 0 0-0.1088 2.43l0.98511 1.0775h-1.256c-2.1759 0-3.9277 1.7517-3.9277 3.9276v10.017c0 2.1759 1.7517 3.9277 3.9277 3.9277h16.145c2.1759 0 3.9277-1.7518 3.9277-3.9277v-10.017c0-2.1759-1.7517-3.9276-3.9277-3.9276h-1.2562l0.98505-1.0775a1.7201 1.7201 0 0 0-0.1088-2.43 1.7201 1.7201 0 0 0-0.79015-0.41022 1.7201 1.7201 0 0 0-1.6399 0.51902l-3.1074 3.3987h-4.31l-3.1072-3.3987a1.7201 1.7201 0 0 0-1.1926-0.55767zm2.4312 7.2851h2.1713a0.92624 0.92624 0 0 1 0.92624 0.92623 0.92624 0.92624 0 0 1-0.92624 0.92624h-2.1713c-2.0962 0-3.7549 1.6587-3.7549 3.7549 0 2.0962 1.6587 3.7547 3.7549 3.7547h2.1714a0.92621 0.92621 0 0 1 0.92619 0.92619 0.92621 0.92621 0 0 1-0.92619 0.92624h-2.1714c-3.0904 0-5.6071-2.5168-5.6071-5.6071 0-3.0904 2.5168-5.6074 5.6071-5.6074zm5.876 0h2.1713c3.0904 0 5.6071 2.517 5.6071 5.6074 0 3.0904-2.5168 5.6071-5.6071 5.6071h-2.1713a0.92621 0.92621 0 0 1-0.92624-0.92624 0.92621 0.92621 0 0 1 0.92624-0.92619h2.1713c2.0962 0 3.7549-1.6585 3.7549-3.7547 0-2.0962-1.6587-3.7549-3.7549-3.7549h-2.1713a0.92624 0.92624 0 0 1-0.92624-0.92624 0.92624 0.92624 0 0 1 0.92624-0.92623zm-5.671 4.681h7.6375a0.92619 0.92619 0 0 1 0.92613 0.92629 0.92619 0.92619 0 0 1-0.92613 0.92613h-7.6375a0.92619 0.92619 0 0 1-0.92634-0.92613 0.92619 0.92619 0 0 1 0.92634-0.92629z" color="currentColor" stroke-linecap="round" stroke-linejoin="round" stroke-width="1.0001"/>
</svg>
